<svg width="24" height="22" viewBox="0 0 24 22" fill="none" xmlns="http://www.w3.org/2000/svg">
<g filter="url(#filter0_d)">
<path fill-rule="evenodd" clip-rule="evenodd" d="M13.211 0.114796C14.5075 -0.140114 15.6718 0.0448076 16.6524 0.518066C16.7059 0.543873 16.7575 0.56989 16.8074 0.596013L17.7683 0.207146C18.7579 -0.193344 19.8038 0.644332 19.6299 1.69698C20.1011 2.21467 20.1759 3.07967 19.539 3.64935L18.5535 4.53091C18.5656 5.61489 18.4169 6.58677 17.9604 7.6701C17.1466 9.60112 15.9797 11.0534 14.552 12.0636C13.5429 12.7776 12.4632 13.2309 11.3751 13.4749C10.6718 13.6326 10.0751 13.6818 9.63612 13.6708C8.29601 13.686 7.06162 13.4025 5.96028 12.9204C5.30499 12.6336 4.82359 12.3372 4.53429 12.1137C3.48842 11.3058 4.08385 9.63153 5.40501 9.66538C5.65863 9.67188 5.89619 9.66816 6.11837 9.65527C5.69768 9.15649 5.47438 8.65494 5.38369 8.24222C5.35219 8.09888 5.34433 7.95683 5.3572 7.81967C5.26989 7.71434 5.18851 7.60505 5.11307 7.49199C4.57851 6.69082 4.42079 5.8672 4.46506 5.16395C4.46825 5.12058 4.46945 5.10431 4.47102 5.08806L4.47478 5.05295C4.49882 4.84869 4.56444 4.66432 4.6608 4.50463C4.37771 3.60281 4.44198 2.69596 4.70868 1.84216C4.79542 1.56446 4.88674 1.34727 4.96085 1.20151C5.40241 0.333057 6.58481 0.192109 7.21815 0.932432C8.21534 2.09808 9.20031 2.79114 10.1397 3.12697C10.2562 3.16864 10.3682 3.20364 10.4753 3.23265C10.7743 1.34515 12.0168 0.216253 13.211 0.114796ZM11.8098 4.83335C11.8098 4.83335 9.33755 5.40669 6.57881 2.18191C6.57881 2.18191 5.50395 4.29592 7.3672 5.58562C7.3672 5.58562 6.75837 5.69314 6.25622 5.33507C6.25622 5.33507 6.04117 7.16219 8.2627 7.87876H7.08032C7.08032 7.87876 7.40312 9.34781 9.48099 9.67018C9.48099 9.67018 8.6212 10.8167 5.82632 10.745C5.82632 10.745 7.40312 11.9631 9.80379 11.9272C9.80379 11.9272 14.2462 12.1423 16.3602 7.12607C16.88 5.89247 16.826 4.72582 16.7901 4.15227L18.1516 2.9344L16.7901 3.18515C16.7901 3.18515 17.7217 2.5045 17.8295 1.85954L16.3245 2.46858C16.3245 2.46858 15.1959 1.44749 13.2789 1.85954C13.2787 1.85954 11.5234 2.21783 11.8098 4.83335Z" fill="white"/>
<mask id="mask0" mask-type="alpha" maskUnits="userSpaceOnUse" x="4" y="0" width="16" height="14">
<path fill-rule="evenodd" clip-rule="evenodd" d="M13.211 0.114796C14.5075 -0.140114 15.6718 0.0448076 16.6524 0.518066C16.7059 0.543873 16.7575 0.56989 16.8074 0.596013L17.7683 0.207146C18.7579 -0.193344 19.8038 0.644332 19.6299 1.69698C20.1011 2.21467 20.1759 3.07967 19.539 3.64935L18.5535 4.53091C18.5656 5.61489 18.4169 6.58677 17.9604 7.6701C17.1466 9.60112 15.9797 11.0534 14.552 12.0636C13.5429 12.7776 12.4632 13.2309 11.3751 13.4749C10.6718 13.6326 10.0751 13.6818 9.63612 13.6708C8.29601 13.686 7.06162 13.4025 5.96028 12.9204C5.30499 12.6336 4.82359 12.3372 4.53429 12.1137C3.48842 11.3058 4.08385 9.63153 5.40501 9.66538C5.65863 9.67188 5.89619 9.66816 6.11837 9.65527C5.69768 9.15649 5.47438 8.65494 5.38369 8.24222C5.35219 8.09888 5.34433 7.95683 5.3572 7.81967C5.26989 7.71434 5.18851 7.60505 5.11307 7.49199C4.57851 6.69082 4.42079 5.8672 4.46506 5.16395C4.46825 5.12058 4.46945 5.10431 4.47102 5.08806L4.47478 5.05295C4.49882 4.84869 4.56444 4.66432 4.6608 4.50463C4.37771 3.60281 4.44198 2.69596 4.70868 1.84216C4.79542 1.56446 4.88674 1.34727 4.96085 1.20151C5.40241 0.333057 6.58481 0.192109 7.21815 0.932432C8.21534 2.09808 9.20031 2.79114 10.1397 3.12697C10.2562 3.16864 10.3682 3.20364 10.4753 3.23265C10.7743 1.34515 12.0168 0.216253 13.211 0.114796ZM11.8098 4.83335C11.8098 4.83335 9.33755 5.40669 6.57881 2.18191C6.57881 2.18191 5.50395 4.29592 7.3672 5.58562C7.3672 5.58562 6.75837 5.69314 6.25622 5.33507C6.25622 5.33507 6.04117 7.16219 8.2627 7.87876H7.08032C7.08032 7.87876 7.40312 9.34781 9.48099 9.67018C9.48099 9.67018 8.6212 10.8167 5.82632 10.745C5.82632 10.745 7.40312 11.9631 9.80379 11.9272C9.80379 11.9272 14.2462 12.1423 16.3602 7.12607C16.88 5.89247 16.826 4.72582 16.7901 4.15227L18.1516 2.9344L16.7901 3.18515C16.7901 3.18515 17.7217 2.5045 17.8295 1.85954L16.3245 2.46858C16.3245 2.46858 15.1959 1.44749 13.2789 1.85954C13.2787 1.85954 11.5234 2.21783 11.8098 4.83335Z" fill="white"/>
</mask>
<g mask="url(#mask0)">
</g>
</g>
<defs>
<filter id="filter0_d" x="0" y="0" width="24" height="21.6723" filterUnits="userSpaceOnUse" color-interpolation-filters="sRGB">
<feFlood flood-opacity="0" result="BackgroundImageFix"/>
<feColorMatrix in="SourceAlpha" type="matrix" values="0 0 0 0 0 0 0 0 0 0 0 0 0 0 0 0 0 0 127 0" result="hardAlpha"/>
<feOffset dy="4"/>
<feGaussianBlur stdDeviation="2"/>
<feComposite in2="hardAlpha" operator="out"/>
<feColorMatrix type="matrix" values="0 0 0 0 0 0 0 0 0 0 0 0 0 0 0 0 0 0 0.25 0"/>
<feBlend mode="normal" in2="BackgroundImageFix" result="effect1_dropShadow"/>
<feBlend mode="normal" in="SourceGraphic" in2="effect1_dropShadow" result="shape"/>
</filter>
</defs>
</svg>
